<svg xmlns="http://www.w3.org/2000/svg" viewBox="0 0 534 462">
  <g fill="#ff5a00">
    <path d="M 257,279 L 257,280 Z"/>
    <path d="M 142,228 Z"/>
    <path d="M 158,155 Z"/>
    <path d="M 393,129 Z"/>
    <path d="M 194,45 Z"/>
    <path d="M 453,29 L 450,29 L 448,31 L 448,38 L 447,39 L 447,44 L 446,45 L 445,52 L 444,53 L 444,55 L 442,59 L 442,62 L 441,63 L 439,62 L 436,56 L 424,44 L 423,44 L 415,38 L 410,36 L 408,34 L 406,34 L 405,33 L 400,33 L 398,34 L 397,36 L 397,46 L 398,47 L 398,53 L 399,54 L 399,56 L 400,57 L 400,59 L 401,60 L 401,62 L 403,66 L 405,68 L 406,71 L 417,82 L 418,82 L 421,85 L 427,88 L 423,96 L 423,98 L 416,112 L 413,115 L 413,116 L 410,119 L 410,120 L 405,125 L 404,125 L 402,127 L 395,131 L 393,131 L 392,132 L 388,132 L 387,133 L 379,133 L 378,132 L 372,132 L 371,131 L 361,130 L 360,129 L 354,129 L 353,128 L 329,128 L 328,129 L 323,129 L 322,130 L 314,131 L 313,132 L 305,134 L 302,136 L 300,136 L 297,138 L 295,138 L 293,140 L 291,140 L 286,144 L 283,145 L 281,147 L 277,149 L 262,164 L 262,165 L 259,168 L 257,172 L 254,175 L 253,174 L 253,166 L 252,165 L 252,158 L 251,157 L 251,150 L 250,149 L 249,132 L 248,131 L 248,124 L 247,123 L 247,116 L 246,115 L 246,108 L 245,107 L 245,100 L 244,99 L 244,92 L 243,91 L 243,84 L 242,83 L 242,77 L 241,76 L 241,69 L 240,68 L 240,61 L 239,60 L 239,54 L 238,53 L 238,46 L 237,45 L 237,39 L 236,38 L 236,34 L 235,33 L 235,31 L 233,28 L 232,24 L 226,18 L 224,17 L 222,17 L 221,16 L 215,16 L 214,17 L 212,17 L 211,18 L 209,18 L 205,20 L 202,23 L 198,31 L 198,35 L 197,36 L 197,42 L 196,43 L 196,51 L 195,52 L 195,61 L 194,62 L 194,70 L 193,71 L 193,80 L 192,81 L 192,90 L 191,91 L 191,99 L 190,100 L 190,107 L 189,108 L 189,114 L 188,115 L 188,121 L 187,122 L 187,129 L 186,130 L 186,136 L 185,137 L 185,144 L 184,145 L 184,152 L 183,153 L 182,168 L 181,169 L 181,175 L 180,176 L 179,191 L 178,192 L 178,198 L 177,199 L 177,206 L 176,207 L 176,215 L 175,216 L 175,223 L 174,224 L 173,239 L 172,240 L 172,246 L 171,247 L 169,243 L 169,238 L 168,237 L 168,232 L 167,231 L 167,225 L 166,224 L 166,219 L 165,218 L 165,212 L 164,211 L 163,198 L 162,197 L 162,192 L 161,191 L 161,185 L 160,184 L 160,179 L 159,178 L 159,173 L 158,172 L 158,166 L 157,165 L 157,160 L 156,159 L 156,154 L 155,153 L 155,147 L 154,146 L 154,141 L 153,140 L 153,135 L 152,134 L 152,128 L 151,127 L 151,123 L 150,122 L 149,109 L 148,108 L 148,105 L 145,101 L 145,100 L 141,96 L 137,94 L 135,94 L 134,93 L 127,93 L 121,96 L 115,102 L 113,106 L 113,109 L 112,110 L 112,114 L 111,115 L 110,123 L 109,124 L 109,127 L 108,128 L 108,132 L 107,133 L 107,136 L 106,137 L 106,140 L 105,141 L 105,145 L 104,146 L 104,150 L 103,151 L 103,154 L 102,155 L 102,159 L 101,160 L 101,162 L 99,166 L 94,171 L 18,171 L 17,172 L 15,172 L 11,176 L 10,180 L 9,181 L 11,189 L 16,194 L 18,194 L 19,195 L 101,195 L 109,191 L 112,188 L 113,188 L 113,187 L 117,183 L 120,177 L 120,174 L 121,173 L 121,170 L 122,169 L 122,166 L 123,165 L 123,162 L 124,161 L 124,158 L 125,157 L 125,154 L 126,153 L 126,149 L 127,148 L 127,145 L 128,144 L 128,140 L 129,139 L 130,140 L 131,148 L 132,149 L 132,155 L 133,156 L 133,161 L 134,162 L 134,167 L 135,168 L 135,173 L 136,174 L 136,179 L 137,180 L 137,185 L 138,186 L 138,192 L 139,193 L 139,198 L 140,199 L 140,204 L 141,205 L 141,210 L 142,211 L 142,216 L 143,217 L 143,222 L 144,223 L 144,228 L 145,229 L 145,235 L 146,236 L 146,241 L 147,242 L 147,247 L 148,248 L 149,260 L 150,261 L 150,265 L 151,266 L 151,272 L 152,273 L 152,278 L 153,279 L 153,285 L 154,286 L 154,290 L 157,296 L 161,300 L 167,303 L 174,303 L 175,302 L 178,302 L 180,301 L 187,294 L 188,290 L 189,289 L 189,287 L 190,286 L 191,272 L 192,271 L 192,264 L 193,263 L 193,258 L 194,257 L 194,250 L 195,249 L 195,243 L 196,242 L 196,236 L 197,235 L 197,229 L 198,228 L 198,221 L 199,220 L 199,215 L 200,214 L 200,207 L 201,206 L 201,200 L 202,199 L 202,193 L 203,192 L 203,185 L 204,184 L 204,179 L 205,178 L 205,171 L 206,170 L 206,164 L 207,163 L 207,157 L 208,156 L 208,149 L 209,148 L 209,143 L 210,142 L 210,135 L 211,134 L 212,121 L 213,120 L 214,108 L 215,107 L 215,102 L 216,101 L 216,94 L 217,93 L 219,96 L 219,102 L 220,103 L 220,108 L 221,109 L 221,116 L 222,117 L 222,124 L 223,125 L 223,131 L 224,132 L 224,139 L 225,140 L 225,146 L 226,147 L 226,153 L 227,154 L 227,160 L 228,161 L 228,166 L 229,167 L 229,173 L 230,174 L 230,180 L 231,181 L 231,186 L 232,187 L 232,193 L 233,194 L 234,203 L 233,204 L 233,206 L 232,207 L 232,209 L 231,210 L 231,212 L 229,216 L 229,219 L 228,220 L 226,228 L 224,231 L 224,234 L 223,235 L 223,237 L 222,238 L 222,240 L 221,241 L 219,249 L 217,252 L 216,257 L 214,260 L 213,265 L 211,268 L 211,270 L 209,273 L 209,275 L 200,293 L 198,295 L 197,298 L 195,300 L 193,304 L 186,312 L 186,313 L 171,328 L 170,328 L 167,331 L 166,331 L 158,337 L 146,343 L 144,343 L 141,345 L 139,345 L 138,346 L 136,346 L 132,348 L 128,348 L 127,349 L 123,349 L 122,350 L 100,350 L 99,349 L 89,348 L 88,347 L 85,347 L 84,346 L 81,346 L 80,345 L 72,343 L 67,340 L 65,340 L 59,337 L 57,335 L 54,334 L 52,332 L 48,330 L 44,326 L 43,326 L 28,311 L 28,310 L 24,306 L 21,300 L 19,298 L 12,282 L 11,281 L 6,281 L 5,282 L 5,285 L 4,286 L 5,287 L 5,296 L 6,297 L 6,301 L 8,305 L 8,308 L 9,309 L 9,311 L 12,316 L 12,318 L 14,322 L 16,324 L 17,327 L 19,329 L 21,333 L 24,336 L 24,337 L 41,354 L 42,354 L 45,357 L 46,357 L 54,363 L 66,369 L 68,369 L 71,371 L 73,371 L 74,372 L 76,372 L 77,373 L 79,373 L 83,375 L 86,375 L 87,376 L 90,376 L 91,377 L 96,377 L 97,378 L 108,378 L 109,379 L 117,379 L 118,378 L 127,378 L 128,377 L 133,377 L 134,376 L 137,376 L 138,375 L 145,374 L 146,373 L 154,371 L 157,369 L 159,369 L 173,362 L 178,358 L 181,357 L 183,355 L 187,353 L 190,350 L 191,350 L 195,346 L 196,346 L 214,328 L 214,327 L 219,322 L 219,321 L 226,313 L 226,312 L 236,298 L 238,293 L 240,291 L 251,269 L 252,265 L 254,263 L 257,269 L 258,275 L 259,276 L 259,280 L 260,281 L 260,298 L 259,299 L 258,307 L 257,308 L 256,313 L 253,318 L 253,320 L 251,322 L 250,325 L 248,327 L 245,333 L 242,336 L 242,337 L 239,340 L 239,341 L 234,346 L 234,347 L 218,364 L 217,366 L 217,374 L 218,375 L 218,377 L 220,380 L 220,382 L 224,390 L 226,392 L 231,403 L 233,405 L 244,427 L 246,429 L 248,434 L 255,444 L 256,447 L 260,451 L 266,454 L 292,454 L 293,455 L 303,455 L 304,454 L 307,454 L 308,453 L 308,448 L 306,444 L 301,438 L 292,433 L 286,432 L 285,431 L 282,431 L 278,429 L 275,426 L 271,418 L 269,416 L 265,407 L 263,405 L 260,398 L 258,396 L 256,391 L 254,389 L 253,386 L 251,384 L 250,381 L 247,377 L 249,375 L 253,367 L 256,364 L 260,357 L 267,349 L 267,348 L 272,343 L 272,342 L 291,323 L 292,323 L 303,313 L 304,313 L 314,304 L 315,304 L 331,288 L 331,287 L 334,284 L 334,283 L 336,281 L 337,278 L 340,274 L 340,272 L 343,266 L 344,259 L 345,258 L 345,242 L 344,241 L 344,238 L 343,237 L 342,232 L 337,222 L 335,220 L 333,216 L 321,204 L 321,203 L 322,202 L 328,205 L 338,213 L 339,213 L 350,225 L 351,228 L 354,232 L 354,234 L 356,238 L 356,242 L 357,243 L 357,254 L 358,255 L 362,255 L 364,253 L 369,251 L 374,247 L 380,244 L 383,241 L 387,239 L 397,231 L 399,233 L 400,233 L 413,245 L 413,246 L 417,250 L 417,251 L 421,256 L 421,260 L 420,262 L 413,269 L 412,269 L 407,273 L 406,275 L 407,278 L 411,280 L 422,280 L 423,279 L 426,279 L 433,275 L 439,269 L 443,261 L 443,248 L 441,244 L 439,242 L 438,239 L 435,236 L 434,233 L 432,231 L 432,230 L 430,228 L 430,227 L 428,225 L 428,224 L 426,222 L 422,215 L 428,209 L 428,208 L 435,200 L 438,194 L 440,192 L 441,189 L 443,187 L 449,175 L 449,173 L 451,170 L 451,168 L 454,162 L 454,159 L 455,158 L 455,156 L 456,155 L 456,153 L 458,149 L 458,146 L 459,145 L 460,138 L 461,137 L 475,144 L 477,144 L 478,145 L 480,145 L 481,146 L 483,146 L 484,147 L 486,147 L 490,149 L 493,149 L 494,150 L 497,150 L 498,151 L 501,151 L 502,152 L 509,152 L 510,153 L 517,153 L 518,152 L 521,152 L 528,147 L 531,141 L 531,134 L 530,132 L 518,121 L 517,121 L 503,106 L 503,105 L 487,89 L 486,89 L 483,86 L 480,85 L 478,83 L 472,80 L 473,78 L 473,75 L 474,74 L 474,71 L 475,70 L 475,57 L 474,56 L 474,52 L 473,51 L 473,49 L 469,41 L 461,33 Z"/>
  </g>
</svg>